<svg width="36" height="36" viewBox="0 0 36 36" fill="none" xmlns="http://www.w3.org/2000/svg">
<g id="Icon Copy 4">
<path id="Oval" opacity="0.15" fill-rule="evenodd" clip-rule="evenodd" d="M17.9978 36C27.9389 36 35.9978 27.9411 35.9978 18C35.9978 8.05888 27.9389 0 17.9978 0C8.05668 0 -0.00219727 8.05888 -0.00219727 18C-0.00219727 27.9411 8.05668 36 17.9978 36Z" fill="#36B37E"/>
<path id="Icon" d="M15.5949 23.7363L10.7023 18.873C10.5656 18.7363 10.4973 18.5605 10.4973 18.3457C10.4973 18.1308 10.5656 17.9551 10.7023 17.8183L11.7863 16.7637C11.923 16.6074 12.0939 16.5293 12.299 16.5293C12.5041 16.5293 12.6847 16.6074 12.841 16.7637L16.1222 20.0449L23.1535 13.0137C23.3097 12.8574 23.4904 12.7793 23.6955 12.7793C23.9005 12.7793 24.0714 12.8574 24.2082 13.0137L25.2921 14.0684C25.4289 14.2051 25.4972 14.3809 25.4972 14.5957C25.4972 14.8105 25.4289 14.9863 25.2921 15.123L16.6496 23.7363C16.5129 23.8926 16.3371 23.9707 16.1222 23.9707C15.9074 23.9707 15.7316 23.8926 15.5949 23.7363Z" fill="#36B37E"/>
</g>
</svg>
