<svg width="80" height="80" viewBox="0 0 80 80" fill="none" xmlns="http://www.w3.org/2000/svg">
<rect opacity="0.04" x="0.000488281" y="0.0012207" width="80" height="80" rx="8" fill="#175CFF"/>
<path d="M31 30.6458C31 29.4137 31.4895 28.232 32.3607 27.3607C33.232 26.4895 34.4137 26 35.6458 26H40.2917V35.2917H35.6458C34.4137 35.2917 33.232 34.8022 32.3607 33.9309C31.4895 33.0597 31 31.878 31 30.6458Z" stroke="#175CFF" stroke-width="3" stroke-linecap="round" stroke-linejoin="round"/>
<path d="M40.2916 26H44.9374C45.5475 26 46.1516 26.1202 46.7153 26.3536C47.2789 26.5871 47.7911 26.9293 48.2225 27.3607C48.6539 27.7921 48.9961 28.3043 49.2296 28.868C49.4631 29.4316 49.5832 30.0357 49.5832 30.6458C49.5832 31.2559 49.4631 31.8601 49.2296 32.4237C48.9961 32.9874 48.6539 33.4995 48.2225 33.9309C47.7911 34.3623 47.2789 34.7046 46.7153 34.938C46.1516 35.1715 45.5475 35.2917 44.9374 35.2917H40.2916V26Z" stroke="#175CFF" stroke-width="3" stroke-linecap="round" stroke-linejoin="round"/>
<path d="M40.2916 39.9374C40.2916 39.3273 40.4117 38.7232 40.6452 38.1595C40.8787 37.5959 41.2209 37.0837 41.6523 36.6523C42.0837 36.2209 42.5959 35.8787 43.1595 35.6452C43.7232 35.4117 44.3273 35.2916 44.9374 35.2916C45.5475 35.2916 46.1516 35.4117 46.7153 35.6452C47.2789 35.8787 47.7911 36.2209 48.2225 36.6523C48.6539 37.0837 48.9961 37.5959 49.2296 38.1595C49.4631 38.7232 49.5832 39.3273 49.5832 39.9374C49.5832 40.5475 49.4631 41.1516 49.2296 41.7153C48.9961 42.279 48.6539 42.7911 48.2225 43.2225C47.7911 43.6539 47.2789 43.9961 46.7153 44.2296C46.1516 44.4631 45.5475 44.5832 44.9374 44.5832C44.3273 44.5832 43.7232 44.4631 43.1595 44.2296C42.5959 43.9961 42.0837 43.6539 41.6523 43.2225C41.2209 42.7911 40.8787 42.279 40.6452 41.7153C40.4117 41.1516 40.2916 40.5475 40.2916 39.9374V39.9374Z" stroke="#175CFF" stroke-width="3" stroke-linecap="round" stroke-linejoin="round"/>
<path d="M31 49.229C31 47.9968 31.4895 46.8151 32.3607 45.9439C33.232 45.0726 34.4137 44.5832 35.6458 44.5832H40.2917V49.229C40.2917 50.4611 39.8022 51.6428 38.9309 52.5141C38.0597 53.3854 36.878 53.8748 35.6458 53.8748C34.4137 53.8748 33.232 53.3854 32.3607 52.5141C31.4895 51.6428 31 50.4611 31 49.229Z" stroke="#175CFF" stroke-width="3" stroke-linecap="round" stroke-linejoin="round"/>
<path d="M31 39.9374C31 38.7053 31.4895 37.5236 32.3607 36.6523C33.232 35.781 34.4137 35.2916 35.6458 35.2916H40.2917V44.5832H35.6458C34.4137 44.5832 33.232 44.0938 32.3607 43.2225C31.4895 42.3513 31 41.1696 31 39.9374Z" stroke="#175CFF" stroke-width="3" stroke-linecap="round" stroke-linejoin="round"/>
</svg>
