<svg width="16" height="16" viewBox="0 0 16 16" fill="none" xmlns="http://www.w3.org/2000/svg">
<path fill-rule="evenodd" clip-rule="evenodd" d="M7.99902 0.00012207C5.82569 0.00012207 5.55502 0.0094554 4.70036 0.0494554C1.79369 0.182789 0.180357 1.79479 0.0470234 4.70145C0.00835677 5.55612 -0.000976562 5.82812 -0.000976562 8.00012C-0.000976562 10.1735 0.00835677 10.4455 0.0470234 11.2988C0.180357 14.2041 1.79369 15.8188 4.70036 15.9521C5.55502 15.9908 5.82569 16.0001 7.99902 16.0001C10.1724 16.0001 10.4444 15.9908 11.299 15.9521C14.2004 15.8188 15.8204 14.2068 15.951 11.2988C15.9897 10.4455 15.999 10.1735 15.999 8.00012C15.999 5.82812 15.9897 5.55612 15.951 4.70145C15.8204 1.79879 14.2057 0.181455 11.299 0.0494554C10.4444 0.0094554 10.1724 0.00012207 7.99902 0.00012207ZM7.99941 1.44239C10.1354 1.44239 10.3887 1.45039 11.2327 1.48906C13.4021 1.58773 14.4127 2.61573 14.5127 4.76773C14.5501 5.61173 14.5581 5.86373 14.5581 7.99973C14.5581 10.1357 14.5501 10.3891 14.5127 11.2317C14.4127 13.3824 13.4034 14.4131 11.2327 14.5117C10.3887 14.5491 10.1367 14.5584 7.99941 14.5584C5.86341 14.5584 5.61008 14.5504 4.76741 14.5117C2.59408 14.4117 1.58741 13.3797 1.48741 11.2317C1.45008 10.3891 1.44075 10.1357 1.44075 7.99973C1.44075 5.86373 1.45008 5.61039 1.48741 4.76773C1.58608 2.61439 2.59675 1.58639 4.76741 1.48773C5.61008 1.44906 5.86341 1.44239 7.99941 1.44239ZM3.89152 8.00028C3.89152 5.73095 5.73152 3.89228 7.99952 3.89228C10.2675 3.89228 12.1075 5.73228 12.1075 8.00028C12.1075 10.2696 10.2675 12.1083 7.99952 12.1083C5.73152 12.1083 3.89152 10.2696 3.89152 8.00028ZM7.9997 10.6666C6.52637 10.6666 5.33304 9.47325 5.33304 7.99992C5.33304 6.52792 6.52637 5.33325 7.9997 5.33325C9.4717 5.33325 10.6677 6.52659 10.6677 7.99992C10.6677 9.47325 9.4717 10.6666 7.9997 10.6666ZM11.3096 3.73078C11.3096 3.19983 11.7405 2.77028 12.2701 2.77028C12.8023 2.77028 13.2319 3.19983 13.2319 3.73078C13.2319 4.26172 12.801 4.69127 12.2701 4.69127C11.7391 4.69127 11.3096 4.26038 11.3096 3.73078Z" fill="#0A083B"/>
</svg>
