<svg width="80" height="80" viewBox="0 0 80 80" fill="none" xmlns="http://www.w3.org/2000/svg">
<rect opacity="0.04" y="-0.00012207" width="80" height="80" rx="8" fill="#175CFF"/>
<path fill-rule="evenodd" clip-rule="evenodd" d="M40 53.0005C47.1797 53.0005 53 47.1802 53 40.0005C53 32.8208 47.1797 27.0005 40 27.0005C32.8203 27.0005 27 32.8208 27 40.0005C27 47.1802 32.8203 53.0005 40 53.0005Z" stroke="#175CFF" stroke-width="3" stroke-linecap="round" stroke-linejoin="round"/>
<path d="M26.9991 39.9999H52.9991" stroke="#175CFF" stroke-width="3" stroke-linecap="round" stroke-linejoin="round"/>
<path fill-rule="evenodd" clip-rule="evenodd" d="M39.9988 26.999C43.2505 30.5589 45.0984 35.1787 45.1988 39.999C45.0984 44.8194 43.2505 49.4392 39.9988 52.999C36.7472 49.4392 34.8992 44.8194 34.7988 39.999C34.8992 35.1787 36.7472 30.5589 39.9988 26.999V26.999Z" stroke="#175CFF" stroke-width="3" stroke-linecap="round" stroke-linejoin="round"/>
</svg>
