<svg width="80" height="80" viewBox="0 0 80 80" fill="none" xmlns="http://www.w3.org/2000/svg">
<rect opacity="0.04" y="-0.000488281" width="80" height="80" rx="8" fill="#175CFF"/>
<path d="M36.454 53.0001C37.1067 53.0001 37.6359 52.4458 37.6359 51.762C37.6359 51.0782 37.1067 50.5239 36.454 50.5239C35.8013 50.5239 35.2722 51.0782 35.2722 51.762C35.2722 52.4458 35.8013 53.0001 36.454 53.0001Z" stroke="#175CFF" stroke-width="3" stroke-linecap="round" stroke-linejoin="round"/>
<path d="M49.4543 53.0001C50.107 53.0001 50.6361 52.4458 50.6361 51.762C50.6361 51.0782 50.107 50.5239 49.4543 50.5239C48.8016 50.5239 48.2725 51.0782 48.2725 51.762C48.2725 52.4458 48.8016 53.0001 49.4543 53.0001Z" stroke="#175CFF" stroke-width="3" stroke-linecap="round" stroke-linejoin="round"/>
<path d="M27 27H31.7273L34.8945 43.578C35.0026 44.148 35.2986 44.66 35.7307 45.0244C36.1629 45.3888 36.7036 45.5824 37.2582 45.5713H48.7455C49.3001 45.5824 49.8408 45.3888 50.2729 45.0244C50.705 44.66 51.001 44.148 51.1091 43.578L53 33.1904H32.9091" stroke="#175CFF" stroke-width="3" stroke-linecap="round" stroke-linejoin="round"/>
</svg>
