<svg width="16" height="13" viewBox="0 0 16 13" fill="none" xmlns="http://www.w3.org/2000/svg">
<path d="M15.9991 1.53953C15.4111 1.80078 14.7778 1.97672 14.1138 2.0567C14.7925 1.65016 15.3111 1.00769 15.5578 0.241259C14.9231 0.617143 14.2205 0.890393 13.4725 1.03701C12.8751 0.398544 12.0205 0 11.0778 0C8.95781 0 7.40048 1.97673 7.87914 4.02943C5.15248 3.89214 2.73248 2.58587 1.11381 0.601148C0.253812 2.07536 0.668479 4.00543 2.12981 4.98247C1.59248 4.96514 1.08715 4.81718 0.644479 4.57193C0.608479 6.09146 1.69915 7.51369 3.27781 7.83092C2.81648 7.95622 2.30981 7.98554 1.79515 7.88691C2.21248 9.19051 3.42714 10.1382 4.86181 10.1649C3.47914 11.2472 1.74181 11.7311 -0.000854492 11.5258C1.45248 12.4575 3.17648 13 5.02981 13C11.1258 13 14.5685 7.85358 14.3605 3.23767C15.0031 2.77648 15.5591 2.19799 15.9991 1.53953Z" fill="#0A083B"/>
</svg>
