<svg width="153" height="129" viewBox="0 0 153 129" fill="none" xmlns="http://www.w3.org/2000/svg">
<path id="Combined Shape" opacity="0.3" fill-rule="evenodd" clip-rule="evenodd" d="M144.001 124.501C144.001 126.986 146.015 129.001 148.501 129.001C150.986 129.001 153.001 126.986 153.001 124.501C153.001 122.016 150.986 120.001 148.501 120.001C146.015 120.001 144.001 122.016 144.001 124.501ZM120.001 124.501C120.001 126.986 122.015 129.001 124.501 129.001C126.986 129.001 129.001 126.986 129.001 124.501C129.001 122.016 126.986 120.001 124.501 120.001C122.015 120.001 120.001 122.016 120.001 124.501ZM95.9999 124.501C95.9999 126.986 98.0146 129.001 100.5 129.001C102.985 129.001 105 126.986 105 124.501C105 122.016 102.985 120.001 100.5 120.001C98.0146 120.001 95.9999 122.016 95.9999 124.501ZM71.9998 124.501C71.9998 126.986 74.0145 129.001 76.4998 129.001C78.9851 129.001 80.9998 126.986 80.9998 124.501C80.9998 122.016 78.9851 120.001 76.4998 120.001C74.0145 120.001 71.9998 122.016 71.9998 124.501ZM47.9997 124.501C47.9997 126.986 50.0144 129.001 52.4997 129.001C54.985 129.001 56.9997 126.986 56.9997 124.501C56.9997 122.016 54.985 120.001 52.4997 120.001C50.0144 120.001 47.9997 122.016 47.9997 124.501ZM23.9989 124.501C23.9989 126.986 26.0136 129.001 28.4989 129.001C30.9842 129.001 32.9989 126.986 32.9989 124.501C32.9989 122.016 30.9842 120.001 28.4989 120.001C26.0136 120.001 23.9989 122.016 23.9989 124.501ZM4.5003 9.00074C2.01502 9.00074 0.000297546 6.98602 0.000297546 4.50074C0.000297546 2.01546 2.01502 0.000738386 4.5003 0.000738386C6.98558 0.000738386 9.0003 2.01546 9.0003 4.50074C9.0003 6.98602 6.98558 9.00074 4.5003 9.00074ZM0.000297546 28.5008C0.000297546 30.9861 2.01502 33.0008 4.5003 33.0008C6.98558 33.0008 9.0003 30.9861 9.0003 28.5008C9.0003 26.0155 6.98558 24.0008 4.5003 24.0008C2.01502 24.0008 0.000297546 26.0155 0.000297546 28.5008ZM4.5003 57.0009C2.01502 57.0009 0.000297546 54.9862 0.000297546 52.5009C0.000297546 50.0156 2.01502 48.0009 4.5003 48.0009C6.98558 48.0009 9.0003 50.0156 9.0003 52.5009C9.0003 54.9862 6.98558 57.0009 4.5003 57.0009ZM0.000297546 76.501C0.000297546 78.9862 2.01502 81.001 4.5003 81.001C6.98558 81.001 9.0003 78.9862 9.0003 76.501C9.0003 74.0157 6.98558 72.001 4.5003 72.001C2.01502 72.001 0.000297546 74.0157 0.000297546 76.501ZM4.5003 105C2.01502 105 0.000297546 102.986 0.000297546 100.5C0.000297546 98.015 2.01502 96.0003 4.5003 96.0003C6.98558 96.0003 9.0003 98.015 9.0003 100.5C9.0003 102.986 6.98558 105 4.5003 105ZM4.5003 129.001C2.01502 129.001 0.000297546 126.986 0.000297546 124.501C0.000297546 122.016 2.01502 120.001 4.5003 120.001C6.98558 120.001 9.0003 122.016 9.0003 124.501C9.0003 126.986 6.98558 129.001 4.5003 129.001ZM28.4989 105C26.0136 105 23.9989 102.986 23.9989 100.5C23.9989 98.015 26.0136 96.0003 28.4989 96.0003C30.9842 96.0003 32.9989 98.015 32.9989 100.5C32.9989 102.986 30.9842 105 28.4989 105ZM23.9989 76.501C23.9989 78.9862 26.0136 81.001 28.4989 81.001C30.9842 81.001 32.9989 78.9862 32.9989 76.501C32.9989 74.0157 30.9842 72.001 28.4989 72.001C26.0136 72.001 23.9989 74.0157 23.9989 76.501ZM28.4989 57.0009C26.0136 57.0009 23.9989 54.9862 23.9989 52.5009C23.9989 50.0156 26.0136 48.0009 28.4989 48.0009C30.9842 48.0009 32.9989 50.0156 32.9989 52.5009C32.9989 54.9862 30.9842 57.0009 28.4989 57.0009ZM23.9989 28.5008C23.9989 30.9861 26.0136 33.0008 28.4989 33.0008C30.9842 33.0008 32.9989 30.9861 32.9989 28.5008C32.9989 26.0155 30.9842 24.0008 28.4989 24.0008C26.0136 24.0008 23.9989 26.0155 23.9989 28.5008ZM28.4989 9.00074C26.0136 9.00074 23.9989 6.98602 23.9989 4.50074C23.9989 2.01546 26.0136 0.000738386 28.4989 0.000738386C30.9842 0.000738386 32.9989 2.01546 32.9989 4.50074C32.9989 6.98602 30.9842 9.00074 28.4989 9.00074ZM52.4997 105C50.0144 105 47.9997 102.986 47.9997 100.5C47.9997 98.015 50.0144 96.0003 52.4997 96.0003C54.985 96.0003 56.9997 98.015 56.9997 100.5C56.9997 102.986 54.985 105 52.4997 105ZM47.9997 76.501C47.9997 78.9862 50.0144 81.001 52.4997 81.001C54.985 81.001 56.9997 78.9862 56.9997 76.501C56.9997 74.0157 54.985 72.001 52.4997 72.001C50.0144 72.001 47.9997 74.0157 47.9997 76.501ZM52.4997 57.0009C50.0144 57.0009 47.9997 54.9862 47.9997 52.5009C47.9997 50.0156 50.0144 48.0009 52.4997 48.0009C54.985 48.0009 56.9997 50.0156 56.9997 52.5009C56.9997 54.9862 54.985 57.0009 52.4997 57.0009ZM47.9997 28.5008C47.9997 30.9861 50.0144 33.0008 52.4997 33.0008C54.985 33.0008 56.9997 30.9861 56.9997 28.5008C56.9997 26.0155 54.985 24.0008 52.4997 24.0008C50.0144 24.0008 47.9997 26.0155 47.9997 28.5008ZM52.4997 9.00074C50.0144 9.00074 47.9997 6.98602 47.9997 4.50074C47.9997 2.01546 50.0144 0.000738386 52.4997 0.000738386C54.985 0.000738386 56.9997 2.01546 56.9997 4.50074C56.9997 6.98602 54.985 9.00074 52.4997 9.00074ZM76.4998 105C74.0145 105 71.9998 102.986 71.9998 100.5C71.9998 98.015 74.0145 96.0003 76.4998 96.0003C78.9851 96.0003 80.9998 98.015 80.9998 100.5C80.9998 102.986 78.9851 105 76.4998 105ZM71.9998 76.501C71.9998 78.9862 74.0145 81.001 76.4998 81.001C78.9851 81.001 80.9998 78.9862 80.9998 76.501C80.9998 74.0157 78.9851 72.001 76.4998 72.001C74.0145 72.001 71.9998 74.0157 71.9998 76.501ZM76.4998 57.0009C74.0145 57.0009 71.9998 54.9862 71.9998 52.5009C71.9998 50.0156 74.0145 48.0009 76.4998 48.0009C78.9851 48.0009 80.9998 50.0156 80.9998 52.5009C80.9998 54.9862 78.9851 57.0009 76.4998 57.0009ZM71.9998 28.5008C71.9998 30.9861 74.0145 33.0008 76.4998 33.0008C78.9851 33.0008 80.9998 30.9861 80.9998 28.5008C80.9998 26.0155 78.9851 24.0008 76.4998 24.0008C74.0145 24.0008 71.9998 26.0155 71.9998 28.5008ZM76.4998 9.00074C74.0145 9.00074 71.9998 6.98602 71.9998 4.50074C71.9998 2.01546 74.0145 0.000738386 76.4998 0.000738386C78.9851 0.000738386 80.9998 2.01546 80.9998 4.50074C80.9998 6.98602 78.9851 9.00074 76.4998 9.00074ZM100.5 105C98.0146 105 95.9999 102.986 95.9999 100.5C95.9999 98.015 98.0146 96.0003 100.5 96.0003C102.985 96.0003 105 98.015 105 100.5C105 102.986 102.985 105 100.5 105ZM95.9999 76.501C95.9999 78.9862 98.0146 81.001 100.5 81.001C102.985 81.001 105 78.9862 105 76.501C105 74.0157 102.985 72.001 100.5 72.001C98.0146 72.001 95.9999 74.0157 95.9999 76.501ZM100.5 57.0009C98.0146 57.0009 95.9999 54.9862 95.9999 52.5009C95.9999 50.0156 98.0146 48.0009 100.5 48.0009C102.985 48.0009 105 50.0156 105 52.5009C105 54.9862 102.985 57.0009 100.5 57.0009ZM95.9999 28.5008C95.9999 30.9861 98.0146 33.0008 100.5 33.0008C102.985 33.0008 105 30.9861 105 28.5008C105 26.0155 102.985 24.0008 100.5 24.0008C98.0146 24.0008 95.9999 26.0155 95.9999 28.5008ZM100.5 9.00074C98.0146 9.00074 95.9999 6.98602 95.9999 4.50074C95.9999 2.01546 98.0146 0.000738386 100.5 0.000738386C102.985 0.000738386 105 2.01546 105 4.50074C105 6.98602 102.985 9.00074 100.5 9.00074ZM124.501 105C122.015 105 120.001 102.986 120.001 100.5C120.001 98.015 122.015 96.0003 124.501 96.0003C126.986 96.0003 129.001 98.015 129.001 100.5C129.001 102.986 126.986 105 124.501 105ZM120.001 76.501C120.001 78.9862 122.015 81.001 124.501 81.001C126.986 81.001 129.001 78.9862 129.001 76.501C129.001 74.0157 126.986 72.001 124.501 72.001C122.015 72.001 120.001 74.0157 120.001 76.501ZM124.501 57.0009C122.015 57.0009 120.001 54.9862 120.001 52.5009C120.001 50.0156 122.015 48.0009 124.501 48.0009C126.986 48.0009 129.001 50.0156 129.001 52.5009C129.001 54.9862 126.986 57.0009 124.501 57.0009ZM120.001 28.5008C120.001 30.9861 122.015 33.0008 124.501 33.0008C126.986 33.0008 129.001 30.9861 129.001 28.5008C129.001 26.0155 126.986 24.0008 124.501 24.0008C122.015 24.0008 120.001 26.0155 120.001 28.5008ZM124.501 9.00074C122.015 9.00074 120.001 6.98602 120.001 4.50074C120.001 2.01546 122.015 0.000738386 124.501 0.000738386C126.986 0.000738386 129.001 2.01546 129.001 4.50074C129.001 6.98602 126.986 9.00074 124.501 9.00074ZM148.501 105C146.015 105 144.001 102.986 144.001 100.5C144.001 98.015 146.015 96.0003 148.501 96.0003C150.986 96.0003 153.001 98.015 153.001 100.5C153.001 102.986 150.986 105 148.501 105ZM144.001 76.501C144.001 78.9862 146.015 81.001 148.501 81.001C150.986 81.001 153.001 78.9862 153.001 76.501C153.001 74.0157 150.986 72.001 148.501 72.001C146.015 72.001 144.001 74.0157 144.001 76.501ZM148.501 57.0009C146.015 57.0009 144.001 54.9862 144.001 52.5009C144.001 50.0156 146.015 48.0009 148.501 48.0009C150.986 48.0009 153.001 50.0156 153.001 52.5009C153.001 54.9862 150.986 57.0009 148.501 57.0009ZM144.001 28.5008C144.001 30.9861 146.015 33.0008 148.501 33.0008C150.986 33.0008 153.001 30.9861 153.001 28.5008C153.001 26.0155 150.986 24.0008 148.501 24.0008C146.015 24.0008 144.001 26.0155 144.001 28.5008ZM148.5 9C146.015 9 144 6.98528 144 4.5C144 2.01472 146.015 0 148.5 0C150.985 0 153 2.01472 153 4.5C153 6.98528 150.985 9 148.5 9Z" fill="#57586E"/>
</svg>
