<svg width="102" height="86" viewBox="0 0 102 86" fill="none" xmlns="http://www.w3.org/2000/svg">
<path opacity="0.3" fill-rule="evenodd" clip-rule="evenodd" d="M96.0005 83.0007C96.0005 84.6576 97.3436 86.0007 99.0005 86.0007C100.657 86.0007 102 84.6576 102 83.0007C102 81.3439 100.657 80.0007 99.0005 80.0007C97.3436 80.0007 96.0005 81.3439 96.0005 83.0007ZM80.0004 83.0007C80.0004 84.6576 81.3436 86.0007 83.0004 86.0007C84.6573 86.0007 86.0004 84.6576 86.0004 83.0007C86.0004 81.3439 84.6573 80.0007 83.0004 80.0007C81.3436 80.0007 80.0004 81.3439 80.0004 83.0007ZM63.9999 83.0007C63.9999 84.6576 65.343 86.0007 66.9999 86.0007C68.6568 86.0007 69.9999 84.6576 69.9999 83.0007C69.9999 81.3439 68.6568 80.0007 66.9999 80.0007C65.343 80.0007 63.9999 81.3439 63.9999 83.0007ZM47.9999 83.0007C47.9999 84.6576 49.343 86.0007 50.9999 86.0007C52.6567 86.0007 53.9999 84.6576 53.9999 83.0007C53.9999 81.3439 52.6567 80.0007 50.9999 80.0007C49.343 80.0007 47.9999 81.3439 47.9999 83.0007ZM31.9998 83.0007C31.9998 84.6576 33.343 86.0007 34.9998 86.0007C36.6567 86.0007 37.9998 84.6576 37.9998 83.0007C37.9998 81.3439 36.6567 80.0007 34.9998 80.0007C33.343 80.0007 31.9998 81.3439 31.9998 83.0007ZM15.9993 83.0007C15.9993 84.6576 17.3424 86.0007 18.9993 86.0007C20.6561 86.0007 21.9993 84.6576 21.9993 83.0007C21.9993 81.3439 20.6561 80.0007 18.9993 80.0007C17.3424 80.0007 15.9993 81.3439 15.9993 83.0007ZM3.0002 6.00049C1.34335 6.00049 0.000198364 4.65735 0.000198364 3.00049C0.000198364 1.34364 1.34335 0.000492257 3.0002 0.000492257C4.65705 0.000492257 6.0002 1.34364 6.0002 3.00049C6.0002 4.65735 4.65705 6.00049 3.0002 6.00049ZM0.000198364 19.0005C0.000198364 20.6574 1.34335 22.0005 3.0002 22.0005C4.65705 22.0005 6.0002 20.6574 6.0002 19.0005C6.0002 17.3437 4.65705 16.0005 3.0002 16.0005C1.34335 16.0005 0.000198364 17.3437 0.000198364 19.0005ZM3.0002 38.0006C1.34335 38.0006 0.000198364 36.6574 0.000198364 35.0006C0.000198364 33.3437 1.34335 32.0006 3.0002 32.0006C4.65705 32.0006 6.0002 33.3437 6.0002 35.0006C6.0002 36.6574 4.65705 38.0006 3.0002 38.0006ZM0.000198364 51.0006C0.000198364 52.6575 1.34335 54.0006 3.0002 54.0006C4.65705 54.0006 6.0002 52.6575 6.0002 51.0006C6.0002 49.3438 4.65705 48.0006 3.0002 48.0006C1.34335 48.0006 0.000198364 49.3438 0.000198364 51.0006ZM3.0002 70.0002C1.34335 70.0002 0.000198364 68.6571 0.000198364 67.0002C0.000198364 65.3433 1.34335 64.0002 3.0002 64.0002C4.65705 64.0002 6.0002 65.3433 6.0002 67.0002C6.0002 68.6571 4.65705 70.0002 3.0002 70.0002ZM3.0002 86.0007C1.34335 86.0007 0.000198364 84.6576 0.000198364 83.0007C0.000198364 81.3439 1.34335 80.0007 3.0002 80.0007C4.65705 80.0007 6.0002 81.3439 6.0002 83.0007C6.0002 84.6576 4.65705 86.0007 3.0002 86.0007ZM18.9993 70.0002C17.3424 70.0002 15.9993 68.6571 15.9993 67.0002C15.9993 65.3433 17.3424 64.0002 18.9993 64.0002C20.6561 64.0002 21.9993 65.3433 21.9993 67.0002C21.9993 68.6571 20.6561 70.0002 18.9993 70.0002ZM15.9993 51.0006C15.9993 52.6575 17.3424 54.0006 18.9993 54.0006C20.6561 54.0006 21.9993 52.6575 21.9993 51.0006C21.9993 49.3438 20.6561 48.0006 18.9993 48.0006C17.3424 48.0006 15.9993 49.3438 15.9993 51.0006ZM18.9993 38.0006C17.3424 38.0006 15.9993 36.6574 15.9993 35.0006C15.9993 33.3437 17.3424 32.0006 18.9993 32.0006C20.6561 32.0006 21.9993 33.3437 21.9993 35.0006C21.9993 36.6574 20.6561 38.0006 18.9993 38.0006ZM15.9993 19.0005C15.9993 20.6574 17.3424 22.0005 18.9993 22.0005C20.6561 22.0005 21.9993 20.6574 21.9993 19.0005C21.9993 17.3437 20.6561 16.0005 18.9993 16.0005C17.3424 16.0005 15.9993 17.3437 15.9993 19.0005ZM18.9993 6.00049C17.3424 6.00049 15.9993 4.65735 15.9993 3.00049C15.9993 1.34364 17.3424 0.000492257 18.9993 0.000492257C20.6561 0.000492257 21.9993 1.34364 21.9993 3.00049C21.9993 4.65735 20.6561 6.00049 18.9993 6.00049ZM34.9998 70.0002C33.343 70.0002 31.9998 68.6571 31.9998 67.0002C31.9998 65.3433 33.343 64.0002 34.9998 64.0002C36.6567 64.0002 37.9998 65.3433 37.9998 67.0002C37.9998 68.6571 36.6567 70.0002 34.9998 70.0002ZM31.9998 51.0006C31.9998 52.6575 33.343 54.0006 34.9998 54.0006C36.6567 54.0006 37.9998 52.6575 37.9998 51.0006C37.9998 49.3438 36.6567 48.0006 34.9998 48.0006C33.343 48.0006 31.9998 49.3438 31.9998 51.0006ZM34.9998 38.0006C33.343 38.0006 31.9998 36.6574 31.9998 35.0006C31.9998 33.3437 33.343 32.0006 34.9998 32.0006C36.6567 32.0006 37.9998 33.3437 37.9998 35.0006C37.9998 36.6574 36.6567 38.0006 34.9998 38.0006ZM31.9998 19.0005C31.9998 20.6574 33.343 22.0005 34.9998 22.0005C36.6567 22.0005 37.9998 20.6574 37.9998 19.0005C37.9998 17.3437 36.6567 16.0005 34.9998 16.0005C33.343 16.0005 31.9998 17.3437 31.9998 19.0005ZM34.9998 6.00049C33.343 6.00049 31.9998 4.65735 31.9998 3.00049C31.9998 1.34364 33.343 0.000492257 34.9998 0.000492257C36.6567 0.000492257 37.9998 1.34364 37.9998 3.00049C37.9998 4.65735 36.6567 6.00049 34.9998 6.00049ZM50.9999 70.0002C49.343 70.0002 47.9999 68.6571 47.9999 67.0002C47.9999 65.3433 49.343 64.0002 50.9999 64.0002C52.6567 64.0002 53.9999 65.3433 53.9999 67.0002C53.9999 68.6571 52.6567 70.0002 50.9999 70.0002ZM47.9999 51.0006C47.9999 52.6575 49.343 54.0006 50.9999 54.0006C52.6567 54.0006 53.9999 52.6575 53.9999 51.0006C53.9999 49.3438 52.6567 48.0006 50.9999 48.0006C49.343 48.0006 47.9999 49.3438 47.9999 51.0006ZM50.9999 38.0006C49.343 38.0006 47.9999 36.6574 47.9999 35.0006C47.9999 33.3437 49.343 32.0006 50.9999 32.0006C52.6567 32.0006 53.9999 33.3437 53.9999 35.0006C53.9999 36.6574 52.6567 38.0006 50.9999 38.0006ZM47.9999 19.0005C47.9999 20.6574 49.343 22.0005 50.9999 22.0005C52.6567 22.0005 53.9999 20.6574 53.9999 19.0005C53.9999 17.3437 52.6567 16.0005 50.9999 16.0005C49.343 16.0005 47.9999 17.3437 47.9999 19.0005ZM50.9999 6.00049C49.343 6.00049 47.9999 4.65735 47.9999 3.00049C47.9999 1.34364 49.343 0.000492257 50.9999 0.000492257C52.6567 0.000492257 53.9999 1.34364 53.9999 3.00049C53.9999 4.65735 52.6567 6.00049 50.9999 6.00049ZM66.9999 70.0002C65.343 70.0002 63.9999 68.6571 63.9999 67.0002C63.9999 65.3433 65.343 64.0002 66.9999 64.0002C68.6568 64.0002 69.9999 65.3433 69.9999 67.0002C69.9999 68.6571 68.6568 70.0002 66.9999 70.0002ZM63.9999 51.0006C63.9999 52.6575 65.343 54.0006 66.9999 54.0006C68.6568 54.0006 69.9999 52.6575 69.9999 51.0006C69.9999 49.3438 68.6568 48.0006 66.9999 48.0006C65.343 48.0006 63.9999 49.3438 63.9999 51.0006ZM66.9999 38.0006C65.343 38.0006 63.9999 36.6574 63.9999 35.0006C63.9999 33.3437 65.343 32.0006 66.9999 32.0006C68.6568 32.0006 69.9999 33.3437 69.9999 35.0006C69.9999 36.6574 68.6568 38.0006 66.9999 38.0006ZM63.9999 19.0005C63.9999 20.6574 65.343 22.0005 66.9999 22.0005C68.6568 22.0005 69.9999 20.6574 69.9999 19.0005C69.9999 17.3437 68.6568 16.0005 66.9999 16.0005C65.343 16.0005 63.9999 17.3437 63.9999 19.0005ZM66.9999 6.00049C65.343 6.00049 63.9999 4.65735 63.9999 3.00049C63.9999 1.34364 65.343 0.000492257 66.9999 0.000492257C68.6568 0.000492257 69.9999 1.34364 69.9999 3.00049C69.9999 4.65735 68.6568 6.00049 66.9999 6.00049ZM83.0004 70.0002C81.3436 70.0002 80.0004 68.6571 80.0004 67.0002C80.0004 65.3433 81.3436 64.0002 83.0004 64.0002C84.6573 64.0002 86.0004 65.3433 86.0004 67.0002C86.0004 68.6571 84.6573 70.0002 83.0004 70.0002ZM80.0004 51.0006C80.0004 52.6575 81.3436 54.0006 83.0004 54.0006C84.6573 54.0006 86.0004 52.6575 86.0004 51.0006C86.0004 49.3438 84.6573 48.0006 83.0004 48.0006C81.3436 48.0006 80.0004 49.3438 80.0004 51.0006ZM83.0004 38.0006C81.3436 38.0006 80.0004 36.6574 80.0004 35.0006C80.0004 33.3437 81.3436 32.0006 83.0004 32.0006C84.6573 32.0006 86.0004 33.3437 86.0004 35.0006C86.0004 36.6574 84.6573 38.0006 83.0004 38.0006ZM80.0004 19.0005C80.0004 20.6574 81.3436 22.0005 83.0004 22.0005C84.6573 22.0005 86.0004 20.6574 86.0004 19.0005C86.0004 17.3437 84.6573 16.0005 83.0004 16.0005C81.3436 16.0005 80.0004 17.3437 80.0004 19.0005ZM83.0004 6.00049C81.3436 6.00049 80.0004 4.65735 80.0004 3.00049C80.0004 1.34364 81.3436 0.000492257 83.0004 0.000492257C84.6573 0.000492257 86.0004 1.34364 86.0004 3.00049C86.0004 4.65735 84.6573 6.00049 83.0004 6.00049ZM99.0005 70.0002C97.3436 70.0002 96.0005 68.6571 96.0005 67.0002C96.0005 65.3433 97.3436 64.0002 99.0005 64.0002C100.657 64.0002 102 65.3433 102 67.0002C102 68.6571 100.657 70.0002 99.0005 70.0002ZM96.0005 51.0006C96.0005 52.6575 97.3436 54.0006 99.0005 54.0006C100.657 54.0006 102 52.6575 102 51.0006C102 49.3438 100.657 48.0006 99.0005 48.0006C97.3436 48.0006 96.0005 49.3438 96.0005 51.0006ZM99.0005 38.0006C97.3436 38.0006 96.0005 36.6574 96.0005 35.0006C96.0005 33.3437 97.3436 32.0006 99.0005 32.0006C100.657 32.0006 102 33.3437 102 35.0006C102 36.6574 100.657 38.0006 99.0005 38.0006ZM96.0005 19.0005C96.0005 20.6574 97.3436 22.0005 99.0005 22.0005C100.657 22.0005 102 20.6574 102 19.0005C102 17.3437 100.657 16.0005 99.0005 16.0005C97.3436 16.0005 96.0005 17.3437 96.0005 19.0005ZM99 6C97.3431 6 96 4.65685 96 3C96 1.34315 97.3431 0 99 0C100.657 0 102 1.34315 102 3C102 4.65685 100.657 6 99 6Z" fill="#57586E"/>
</svg>
